<svg width="40" height="40" viewBox="0 0 40 40" fill="none" xmlns="http://www.w3.org/2000/svg">
<rect width="40" height="40" rx="20" fill="black"/>
<path fill-rule="evenodd" clip-rule="evenodd" d="M21.6538 21.016L24.4413 15.2812L18.6281 18.1101L18.5947 14.9302L15.5908 17.1139L15.4939 17.1695C15.1052 17.3919 14.7375 17.6702 14.4019 18.006C12.3814 20.0278 12.3814 23.3057 14.4019 25.3275C16.4225 27.3492 19.6984 27.3492 21.7189 25.3275C22.0192 25.027 22.2733 24.7009 22.4827 24.3572L22.534 24.273L24.8885 21.131L21.6538 21.016ZM28.8888 19.2173L24.2359 25.4266C23.9423 25.9085 23.5873 26.3635 23.1708 26.7802C20.3484 29.6043 15.7724 29.6043 12.9501 26.7802C10.1277 23.9561 10.1277 19.3773 12.9501 16.5532C13.4157 16.0874 13.929 15.6983 14.4743 15.3862L20.6059 10.9285L20.6471 14.843L28.8864 10.8334L24.8805 19.0749L28.8888 19.2173Z" fill="#8AE06B"/>
</svg>
